PathFileType	4	(X/Y/Z)	/Users/FranklinZhao/OpenSimProject/Simulation/c3d_to_trc/SN001_static.trc
DataRate	CameraRate	NumFrames	NumMarkers	Units	OrigDataRate	OrigDataStartFrame	OrigNumFrames
200.000000	200.000000	4	72	mm	200.000000	10	14
Frame#	Time	LPSIS			RPSIS			LICR			RICR			LASIS			RASIS			RUA1			RUA2			RUA3			RUA4			RHLE			RHME			RTEMP			RHEAD			LHEAD			LTEMP			RACR			LACR			LUA1			LUA2			LUA3			LUA4			LHLE			LHME			STER			XPRO			C7			T4			T8			T10			LFA1			LFA2			LFA3			LRSP			LUSP			RFA1			RFA2			RFA3			RRSP			RUSP			LTH1			LTH2			LTH3			LTH4			LFLE			LFME			LSK1			LSK2			LSK3			LSK4			LTAM			LFAL			LFCC			LFMT1			LFMT2			LFMT5			RTH1			RTH2			RTH3			RTH4			RFLE			RFME			RSK1			RSK2			RSK3			RSK4			RFAL			RTAM			RFCC			RFMT1			RFMT2			RFMT5			
		X1	Y1	Z1	X2	Y2	Z2	X3	Y3	Z3	X4	Y4	Z4	X5	Y5	Z5	X6	Y6	Z6	X7	Y7	Z7	X8	Y8	Z8	X9	Y9	Z9	X10	Y10	Z10	X11	Y11	Z11	X12	Y12	Z12	X13	Y13	Z13	X14	Y14	Z14	X15	Y15	Z15	X16	Y16	Z16	X17	Y17	Z17	X18	Y18	Z18	X19	Y19	Z19	X20	Y20	Z20	X21	Y21	Z21	X22	Y22	Z22	X23	Y23	Z23	X24	Y24	Z24	X25	Y25	Z25	X26	Y26	Z26	X27	Y27	Z27	X28	Y28	Z28	X29	Y29	Z29	X30	Y30	Z30	X31	Y31	Z31	X32	Y32	Z32	X33	Y33	Z33	X34	Y34	Z34	X35	Y35	Z35	X36	Y36	Z36	X37	Y37	Z37	X38	Y38	Z38	X39	Y39	Z39	X40	Y40	Z40	X41	Y41	Z41	X42	Y42	Z42	X43	Y43	Z43	X44	Y44	Z44	X45	Y45	Z45	X46	Y46	Z46	X47	Y47	Z47	X48	Y48	Z48	X49	Y49	Z49	X50	Y50	Z50	X51	Y51	Z51	X52	Y52	Z52	X53	Y53	Z53	X54	Y54	Z54	X55	Y55	Z55	X56	Y56	Z56	X57	Y57	Z57	X58	Y58	Z58	X59	Y59	Z59	X60	Y60	Z60	X61	Y61	Z61	X62	Y62	Z62	X63	Y63	Z63	X64	Y64	Z64	X65	Y65	Z65	X66	Y66	Z66	X67	Y67	Z67	X68	Y68	Z68	X69	Y69	Z69	X70	Y70	Z70	X71	Y71	Z71	X72	Y72	Z72	

11	0.05	1604.833740234375	276.6679077148438	1006.639282226562	1604.443481445312	354.0622253417969	1009.623107910156	1585.553344726562	183.8714599609375	1066.212036132812	1573.123657226562	445.3411254882812	1091.4462890625	1413.500732421875	185.3193817138672	989.185791015625	1407.082397460938	444.4139709472656	994.4700317382812	1560.16357421875	562.2522583007812	1369.836303710938	1498.9658203125	592.79931640625	1400.774780273438	1480.737426757812	639.98876953125	1346.318603515625	1539.021240234375	616.590087890625	1306.298950195312	1500.545654296875	665.3353881835938	1244.264526367188	1449.552856445312	614.0336303710938	1218.55224609375	1410.59814453125	391.051025390625	1708.140380859375	1368.1416015625	353.9668579101562	1714.871948242188	1369.58447265625	272.0235595703125	1712.37939453125	1419.885498046875	233.8759460449219	1701.151245117188	1533.065307617188	480.8176879882812	1522.951904296875	1548.32177734375	128.5459136962891	1526.17138671875	1517.55712890625	30.12719345092773	1408.61474609375	1566.687744140625	52.75387191772461	1355.04248046875	1540.021240234375	0.7308915257453918	1290.884643554688	1491.373046875	-21.34018898010254	1343.047485351562	1494.634765625	-42.12724685668945	1249.316528320312	1458.102172851562	11.21613883972168	1217.448852539062	1448.473754882812	302.0877380371094	1455.037841796875	1391.374145507812	294.9328002929688	1250.178344726562	1577.1904296875	312.9312133789062	1559.868896484375	1636.054077148438	307.5387878417969	1450.210083007812	1635.990478515625	311.1179809570312	1314.806640625	1630.511352539062	306.2501831054688	1269.805786132812	1446.940673828125	-224.4106292724609	1140.749633789062	1472.599243164062	-201.7431335449219	1108.461303710938	1437.028442382812	-229.5419921875	1107.99853515625	1389.627807617188	-248.4810485839844	1101.437377929688	1412.98291015625	-210.7365875244141	1048.084716796875	1506.481079101562	809.2072143554688	1120.516845703125	1487.03271484375	837.4540405273438	1152.1611328125	1480.550537109375	846.2427978515625	1118.981811523438	1449.375244140625	890.0617065429688	1099.712158203125	1456.7666015625	844.5663452148438	1056.27978515625	1489.703002929688	123.1497116088867	715.9757080078125	1538.796752929688	134.7311706542969	719.7114868164062	1553.047485351562	143.0746459960938	612.7456665039062	1490.6171875	126.3727035522461	613.2108154296875	1534.416870117188	142.8008422851562	520.2705688476562	1519.438354492188	259.1233520507812	492.1202697753906	1568.7392578125	100.234489440918	350.8450927734375	1626.99658203125	122.5364837646484	352.7371826171875	1631.078735351562	127.7306442260742	264.9149780273438	1571.957763671875	102.6707992553711	267.3681335449219	1551.130249023438	193.7903747558594	85.33684539794922	1608.007080078125	133.2793884277344	76.6058349609375	1627.184692382812	188.4047546386719	36.61212921142578	1421.686157226562	131.6353912353516	30.22329521179199	1433.3486328125	93.65442657470703	31.19375419616699	1491.863403320312	58.71150588989258	23.53110122680664	1514.012573242188	499.6119689941406	748.5191040039062	1457.88330078125	497.7735595703125	727.6183471679688	1460.541015625	489.6213073730469	640.9869995117188	1524.765625	489.492919921875	648.2550659179688	1525.0791015625	480.5870666503906	536.3192138671875	1519.928344726562	361.9105224609375	500.6573181152344	1590.939086914062	512.15869140625	366.3272094726562	1534.448486328125	518.5955200195312	383.50048828125	1533.418579101562	513.7108764648438	274.2867126464844	1597.494750976562	511.4666137695312	283.591552734375	1594.134155273438	487.9494934082031	74.06358337402344	1550.2890625	414.9395446777344	87.46040344238281	1623.528930664062	439.900146484375	42.77482223510742	1422.913940429688	454.9432373046875	30.0628719329834	1421.857177734375	499.8629455566406	30.88798332214355	1468.182861328125	547.2566528320312	21.21932792663574	
12	0.055	1604.866455078125	276.6728515625	1006.6884765625	1604.402954101562	354.098876953125	1009.633911132812	1585.571533203125	183.8820190429688	1066.27734375	1573.107421875	445.3877563476562	1091.477783203125	1413.469848632812	185.3769683837891	989.1804809570312	1407.111938476562	444.38671875	994.4512329101562	1560.205932617188	562.2716064453125	1369.924926757812	1498.962646484375	592.8054809570312	1400.755737304688	1480.76806640625	640.0112915039062	1346.354248046875	1539.060791015625	616.624267578125	1306.37353515625	1500.593505859375	665.349853515625	1244.247680664062	1449.64599609375	614.0222778320312	1218.511840820312	1410.633666992188	391.11669921875	1708.111206054688	1368.198364257812	353.943359375	1714.84814453125	1369.618041992188	272.0728759765625	1712.351928710938	1419.858032226562	233.9258575439453	1701.123901367188	1533.114501953125	480.840576171875	1522.988891601562	1548.319213867188	128.5732421875	1526.19921875	1517.664428710938	30.09841728210449	1408.56640625	1566.700561523438	52.75259017944336	1355.128295898438	1540.0498046875	0.7113888263702393	1291.00634765625	1491.412841796875	-21.30641746520996	1343.087158203125	1494.646240234375	-42.1728401184082	1249.398315429688	1458.141723632812	11.20475482940674	1217.4658203125	1448.482177734375	302.1124572753906	1455.032470703125	1391.345581054688	294.9524841308594	1250.159790039062	1577.213134765625	312.979248046875	1559.876831054688	1636.0244140625	307.5309143066406	1450.283081054688	1635.966674804688	311.0953063964844	1314.897094726562	1630.515869140625	306.2732238769531	1269.830444335938	1446.784057617188	-224.4849548339844	1140.880981445312	1472.507080078125	-201.8928985595703	1108.620361328125	1436.927978515625	-229.6369323730469	1108.111694335938	1389.512451171875	-248.5145568847656	1101.54736328125	1412.937866210938	-210.8387298583984	1048.257690429688	1506.48046875	809.263671875	1120.60791015625	1486.987915039062	837.4954223632812	1152.179565429688	1480.587158203125	846.2939453125	1119.078002929688	1449.327758789062	890.1015625	1099.751220703125	1456.81884765625	844.6146240234375	1056.381103515625	1489.704223632812	123.1559829711914	715.9871215820312	1538.789184570312	134.7781524658203	719.7108764648438	1553.019409179688	143.3480072021484	612.7808227539062	1490.576293945312	126.3186492919922	613.3060302734375	1534.393188476562	142.8011779785156	520.3004150390625	1519.379760742188	259.1478576660156	492.1512145996094	1568.728271484375	100.1921310424805	350.8516540527344	1626.9921875	122.5685424804688	352.7448120117188	1631.0634765625	127.6990509033203	264.9462280273438	1571.924926757812	102.6600570678711	267.4039306640625	1551.134033203125	193.8193817138672	85.3455810546875	1608.051391601562	133.3001861572266	76.66510009765625	1627.170654296875	188.4134674072266	36.64337539672852	1421.695922851562	131.6871795654297	30.26132774353027	1433.361572265625	93.67538452148438	31.20077323913574	1491.858520507812	58.68219375610352	23.55828475952148	1514.02783203125	499.6522521972656	748.54736328125	1457.86474609375	497.7573852539062	727.64501953125	1460.546875	489.62890625	640.9757080078125	1524.7666015625	489.48974609375	648.2959594726562	1525.032592773438	480.6027221679688	536.3873291015625	1519.999267578125	362.0060119628906	500.7724304199219	1590.951904296875	512.2153930664062	366.4237670898438	1534.462890625	518.6054077148438	383.540771484375	1533.447265625	513.7587890625	274.2939147949219	1597.466186523438	511.5189208984375	283.5993041992188	1594.1201171875	487.9822692871094	74.10983276367188	1550.249145507812	414.862548828125	87.51795196533203	1623.524780273438	439.8791198730469	42.79342269897461	1422.906616210938	454.9431762695312	30.0604305267334	1421.866943359375	499.8812866210938	30.88293075561523	1468.180053710938	547.2304077148438	21.25323486328125	
13	0.06	1604.8212890625	276.6639099121094	1006.730895996094	1604.452270507812	354.0632934570312	1009.667602539062	1585.570678710938	183.8595123291016	1066.299438476562	1573.1767578125	445.3592834472656	1091.501342773438	1413.494995117188	185.4482421875	989.2281494140625	1407.124877929688	444.369384765625	994.472412109375	1560.237060546875	562.2830200195312	1369.97314453125	1498.965087890625	592.8473510742188	1400.755004882812	1480.780639648438	640.0040283203125	1346.354858398438	1539.068969726562	616.6273193359375	1306.371826171875	1500.630126953125	665.3743286132812	1244.291625976562	1449.686767578125	614.0350952148438	1218.518188476562	1410.651000976562	391.147705078125	1708.160400390625	1368.134765625	353.9961242675781	1714.883544921875	1369.638549804688	272.1332092285156	1712.399291992188	1419.88427734375	233.9305877685547	1701.1806640625	1533.12939453125	480.84619140625	1522.989501953125	1548.361450195312	128.5926361083984	1526.226196289062	1517.675048828125	30.08186149597168	1408.591064453125	1566.685668945312	52.68988037109375	1355.182006835938	1540.072143554688	0.6816067695617676	1291.02685546875	1491.398559570312	-21.33987998962402	1343.1083984375	1494.662231445312	-42.179443359375	1249.440307617188	1458.154663085938	11.17433834075928	1217.493286132812	1448.55126953125	302.171875	1455.024047851562	1391.364013671875	294.9545288085938	1250.113891601562	1577.21484375	312.9727783203125	1559.901977539062	1636.060913085938	307.5594177246094	1450.301147460938	1636.002197265625	311.0814514160156	1314.9443359375	1630.517456054688	306.2642211914062	1269.85595703125	1446.679321289062	-224.5514984130859	1141.019775390625	1472.432250976562	-202.0124969482422	1108.756103515625	1436.807006835938	-229.6742706298828	1108.263305664062	1389.348388671875	-248.5059661865234	1101.672607421875	1412.84912109375	-210.8988342285156	1048.333251953125	1506.491943359375	809.3307495117188	1120.598510742188	1486.992797851562	837.5343627929688	1152.255737304688	1480.547973632812	846.2973022460938	1119.092163085938	1449.307861328125	890.12451171875	1099.814086914062	1456.769287109375	844.6475219726562	1056.431274414062	1489.677856445312	123.1341934204102	715.9729614257812	1538.792724609375	134.8027191162109	719.7161865234375	1553.011474609375	143.3488464355469	612.8175659179688	1490.5732421875	126.3553619384766	613.2862548828125	1534.398559570312	142.7865447998047	520.3102416992188	1519.346557617188	259.1619873046875	492.1821594238281	1568.746215820312	100.2409133911133	350.8302612304688	1626.958374023438	122.5128326416016	352.7640380859375	1631.0517578125	127.6840515136719	264.9490051269531	1571.926147460938	102.6752243041992	267.4028930664062	1551.102783203125	193.7664947509766	85.37815093994141	1607.858154296875	133.3411254882812	76.74416351318359	1627.158203125	188.4114227294922	36.63594436645508	1421.705932617188	131.6801300048828	30.26302337646484	1433.369384765625	93.65090942382812	31.17831039428711	1491.83203125	58.69275283813477	23.55290603637695	1514.057861328125	499.6242980957031	748.5410766601562	1457.902221679688	497.7839660644531	727.6334228515625	1460.531494140625	489.626708984375	641.0147705078125	1524.78857421875	489.5040283203125	648.2909545898438	1525.052978515625	480.5773010253906	536.3810424804688	1519.953979492188	362.0248413085938	500.8490905761719	1590.92529296875	512.1976318359375	366.4053344726562	1534.45263671875	518.614013671875	383.5758361816406	1533.4404296875	513.7214965820312	274.2926940917969	1597.4765625	511.49365234375	283.6049194335938	1594.113647460938	487.9322814941406	74.13615417480469	1550.266845703125	414.9622802734375	87.56951904296875	1623.5	439.8587036132812	42.83835601806641	1422.9111328125	454.8904724121094	30.04394912719727	1421.869018554688	499.8810424804688	30.92702102661133	1468.168579101562	547.244140625	21.26803207397461	
14	0.065	1604.885009765625	276.6442565917969	1006.74169921875	1604.43896484375	354.0447998046875	1009.698486328125	1585.575317382812	183.8579559326172	1066.282104492188	1573.156372070312	445.3464050292969	1091.4951171875	1413.503784179688	185.4232635498047	989.248779296875	1407.16455078125	444.4187927246094	994.4861450195312	1560.230590820312	562.335693359375	1369.933959960938	1498.978515625	592.8851318359375	1400.780639648438	1480.792114257812	640.0341796875	1346.359619140625	1539.11474609375	616.6533813476562	1306.38916015625	1500.64208984375	665.395263671875	1244.287963867188	1449.767944335938	614.04638671875	1218.52392578125	1410.684204101562	391.1894226074219	1708.16748046875	1368.180053710938	354.0281066894531	1714.845092773438	1369.612182617188	272.1187744140625	1712.469970703125	1419.867431640625	233.9417419433594	1701.199829101562	1533.165893554688	480.8481140136719	1522.978637695312	1548.348388671875	128.5744018554688	1526.210571289062	1517.694458007812	30.11559867858887	1408.638549804688	1566.709228515625	52.6760139465332	1355.190185546875	1540.07373046875	0.6566968560218811	1291.106567382812	1491.414916992188	-21.36711311340332	1343.156127929688	1494.673706054688	-42.23176574707031	1249.492919921875	1458.194091796875	11.14108848571777	1217.521728515625	1448.591186523438	302.1407470703125	1455.085083007812	1391.376098632812	294.9624328613281	1250.166748046875	1577.253784179688	312.9708557128906	1559.88330078125	1636.094116210938	307.4627990722656	1450.411010742188	1636.0537109375	311.0963134765625	1314.964111328125	1630.558471679688	306.2721557617188	1269.900146484375	1446.544311523438	-224.6056365966797	1141.1318359375	1472.331176757812	-202.1375274658203	1108.877807617188	1436.671997070312	-229.817626953125	1108.428466796875	1389.213989257812	-248.5301361083984	1101.777709960938	1412.728149414062	-211.036865234375	1048.401245117188	1506.499389648438	809.3961791992188	1120.622192382812	1487.01220703125	837.5471801757812	1152.295043945312	1480.581176757812	846.3737182617188	1119.141967773438	1449.264404296875	890.191650390625	1099.835571289062	1456.789672851562	844.6923828125	1056.435546875	1489.682739257812	123.1172485351562	715.9934692382812	1538.80078125	134.7774200439453	719.718017578125	1553.029052734375	143.0648498535156	612.7799682617188	1490.596069335938	126.4320297241211	613.2528686523438	1534.4169921875	142.7952423095703	520.3170776367188	1519.32861328125	259.1729736328125	492.165283203125	1568.69677734375	100.235954284668	350.8957824707031	1626.9609375	122.5387725830078	352.76025390625	1631.054809570312	127.6911239624023	264.9517517089844	1571.936157226562	102.6864929199219	267.3966674804688	1551.093627929688	193.7337799072266	85.32217407226562	1608.026000976562	133.2835845947266	76.6807861328125	1627.149169921875	188.3888244628906	36.6739501953125	1421.683837890625	131.6258697509766	30.28087615966797	1433.353881835938	93.66670227050781	31.19708824157715	1491.857177734375	58.66758728027344	23.53028869628906	1514.064453125	499.5998840332031	748.528076171875	1457.90380859375	497.7553405761719	727.6181640625	1460.549194335938	489.6669311523438	641.0057373046875	1524.811401367188	489.4311828613281	648.2817993164062	1525.024780273438	480.607666015625	536.4088134765625	1519.949584960938	361.9418640136719	500.7585754394531	1590.927734375	512.195556640625	366.3984069824219	1534.451416015625	518.6229248046875	383.5869445800781	1533.448608398438	513.7399291992188	274.3231201171875	1597.493041992188	511.4866027832031	283.5552978515625	1594.131103515625	487.9195251464844	74.15183258056641	1550.250366210938	414.8699340820312	87.51666259765625	1623.4814453125	439.8651733398438	42.80586624145508	1422.903930664062	454.9194641113281	30.04808235168457	1421.8642578125	499.8620910644531	30.91475105285645	1468.158447265625	547.1748046875	21.21745300292969	
